<?xml version="1.0" encoding="UTF-8"?>
<svg id="Layer_1" data-name="Layer 1" xmlns="http://www.w3.org/2000/svg" viewBox="0 0 139.62 161.89">
  <defs>
    <style>
      .cls-1 {
        stroke: #1fa59a;
        stroke-width: 4px;
      }

      .cls-1, .cls-2 {
        fill: none;
        stroke-miterlimit: 10;
      }

      .cls-2 {
        stroke: #39393a;
        stroke-width: 5px;
      }
    </style>
  </defs>
  <g id="Bag">
    <polygon id="Bag-2" data-name="Bag" class="cls-2" points="133.28 155.87 6.5 155.87 16.24 38.51 122.89 38.51 133.28 155.87"/>
    <path id="Handle" class="cls-2" d="M51.94,23.77l.2,14.74h35.7v-14.74C83.01-.23,56.6.23,51.94,23.77Z"/>
  </g>
  <g id="Paw_Print" data-name="Paw Print">
    <path id="Pad" class="cls-1" d="M39.82,112.84c2.53-2.52,5.88-3.49,8.36-6.03,2.42-2.48,3.76-6.15,5.9-8.94,9.07-11.81,25.2-11.08,33.48,1.48,2.49,3.77,4.49,7.66,7.77,10.58,2.86,2.53,5.84,4.88,7.68,8.62,3.78,7.63,1.97,18.7-4.46,24.24-6.32,6.87-16.05,6.46-22.93.77-7.48-6.41-11.49.96-18.54,3.25-16.68,5.58-30.97-19.35-17.26-33.96Z"/>
    <g id="Toes">
      <path id="Far_Right_Toe" data-name="Far Right Toe" class="cls-1" d="M23.01,94.99c2.27,7.49,8.44,11.7,13.79,9.41,5.34-2.29,7.84-10.21,5.57-17.7-2.27-7.49-8.44-11.7-13.79-9.41-5.34,2.29-7.84,10.21-5.57,17.7Z"/>
      <path id="Center_Right_Toe" data-name="Center Right Toe" class="cls-1" d="M41.33,69.07c1.5,10.2,8.5,17.27,15.64,15.79,7.14-1.48,11.71-10.95,10.21-21.15-1.5-10.2-8.5-17.27-15.64-15.79-7.14,1.48-11.71,10.95-10.21,21.15Z"/>
      <path id="Center_Left_Toe" data-name="Center Left Toe" class="cls-1" d="M73.19,64.72c-.93,10.3,4.15,19.39,11.35,20.32,7.2.92,13.8-6.68,14.74-16.97s-4.15-19.39-11.35-20.32c-7.2-.92-13.8,6.68-14.74,16.97Z"/>
      <path id="Far_Left_Toe" data-name="Far Left Toe" class="cls-1" d="M97.25,87.74c-1.7,7.7,1.38,15.33,6.88,17.04,5.5,1.71,11.33-3.14,13.02-10.84,1.7-7.7-1.38-15.33-6.88-17.04-5.5-1.71-11.33,3.14-13.02,10.84Z"/>
    </g>
  </g>
</svg>