<?xml version="1.0" encoding="UTF-8"?>
<svg id="Layer_1" data-name="Layer 1" xmlns="http://www.w3.org/2000/svg" viewBox="0 0 139.62 161.89">
  <defs>
    <style>
      .cls-1 {
        stroke: #1fa59a;
        stroke-width: 4px;
      }

      .cls-1, .cls-2 {
        fill: none;
        stroke-miterlimit: 10;
      }

      .cls-2 {
        stroke: #a08bc1;
        stroke-width: 10px;
      }
    </style>
  </defs>
  <g id="Bag">
    <polygon id="Bag-2" data-name="Bag" class="cls-2" points="133.28 155.87 6.5 155.87 16.24 38.51 122.89 38.51 133.28 155.87"/>
    <path id="Handle" class="cls-2" d="M51.94,23.77l.2,14.74h35.7v-14.74C83.01-.23,56.6.23,51.94,23.77Z"/>
  </g>
  <g id="Paw_Print" data-name="Paw Print">
    <path id="Pad" class="cls-1" d="M39.82,109.87c2.53-2.12,5.88-2.93,8.36-5.08,2.42-2.09,3.76-5.17,5.9-7.52,9.07-9.94,25.2-9.32,33.48,1.25,2.49,3.18,4.49,6.45,7.77,8.9,2.86,2.13,5.84,4.1,7.68,7.25,3.78,6.42,1.97,15.73-4.46,20.39-6.32,5.78-16.05,5.43-22.93.65-7.48-5.39-11.49.81-18.54,2.74-16.68,4.69-30.97-16.28-17.26-28.57Z"/>
    <g id="Toes">
      <ellipse id="Far_Right_Toe" data-name="Far Right Toe" class="cls-1" cx="32.69" cy="91.36" rx="10.29" ry="12.12" transform="translate(-29.04 16.49) rotate(-19.82)"/>
      <ellipse id="Center_Right_Toe" data-name="Center Right Toe" class="cls-1" cx="54.26" cy="70.78" rx="13.12" ry="15.78" transform="translate(-11.36 10.38) rotate(-9.9)"/>
      <ellipse id="Center_Left_Toe" data-name="Center Left Toe" class="cls-1" cx="86.23" cy="70.78" rx="15.78" ry="13.12" transform="translate(6.61 148.93) rotate(-83.85)"/>
      <ellipse id="Far_Left_Toe" data-name="Far Left Toe" class="cls-1" cx="107.2" cy="91.36" rx="12.12" ry="10.29" transform="translate(-8.35 171.9) rotate(-75.32)"/>
    </g>
  </g>
</svg>