<svg id="visual" viewBox="0 0 1200 80" width="1200" height="80" xmlns="http://www.w3.org/2000/svg" xmlns:xlink="http://www.w3.org/1999/xlink" version="1.1"><path d="M0 36L11.8 33.5C23.7 31 47.3 26 70.8 29C94.3 32 117.7 43 141.2 45.8C164.7 48.7 188.3 43.3 211.8 38.5C235.3 33.7 258.7 29.3 282.2 32.2C305.7 35 329.3 45 353 46C376.7 47 400.3 39 423.8 36.8C447.3 34.7 470.7 38.3 494.2 37.8C517.7 37.3 541.3 32.7 564.8 31.3C588.3 30 611.7 32 635.2 33.5C658.7 35 682.3 36 705.8 35.2C729.3 34.3 752.7 31.7 776.2 32.5C799.7 33.3 823.3 37.7 847 41.8C870.7 46 894.3 50 917.8 49.2C941.3 48.3 964.7 42.7 988.2 41.5C1011.7 40.3 1035.3 43.7 1058.8 40.8C1082.3 38 1105.7 29 1129.2 28.5C1152.7 28 1176.3 36 1188.2 40L1200 44L1200 81L1188.2 81C1176.3 81 1152.7 81 1129.2 81C1105.7 81 1082.3 81 1058.8 81C1035.3 81 1011.7 81 988.2 81C964.7 81 941.3 81 917.8 81C894.3 81 870.7 81 847 81C823.3 81 799.7 81 776.2 81C752.7 81 729.3 81 705.8 81C682.3 81 658.7 81 635.2 81C611.7 81 588.3 81 564.8 81C541.3 81 517.7 81 494.2 81C470.7 81 447.3 81 423.8 81C400.3 81 376.7 81 353 81C329.3 81 305.7 81 282.2 81C258.7 81 235.3 81 211.8 81C188.3 81 164.7 81 141.2 81C117.7 81 94.3 81 70.8 81C47.3 81 23.7 81 11.8 81L0 81Z" fill="#fff9ec"></path><path d="M0 53L11.8 49C23.7 45 47.3 37 70.8 33.5C94.3 30 117.7 31 141.2 33C164.7 35 188.3 38 211.8 39.8C235.3 41.7 258.7 42.3 282.2 41.2C305.7 40 329.3 37 353 38.7C376.7 40.3 400.3 46.7 423.8 47.3C447.3 48 470.7 43 494.2 42.7C517.7 42.3 541.3 46.7 564.8 46.3C588.3 46 611.7 41 635.2 39.3C658.7 37.7 682.3 39.3 705.8 40.8C729.3 42.3 752.7 43.7 776.2 45.5C799.7 47.3 823.3 49.7 847 47.8C870.7 46 894.3 40 917.8 40.5C941.3 41 964.7 48 988.2 47.8C1011.7 47.7 1035.3 40.3 1058.8 39.5C1082.3 38.7 1105.7 44.3 1129.2 43.7C1152.7 43 1176.3 36 1188.2 32.5L1200 29L1200 81L1188.2 81C1176.3 81 1152.7 81 1129.2 81C1105.7 81 1082.3 81 1058.8 81C1035.3 81 1011.7 81 988.2 81C964.7 81 941.3 81 917.8 81C894.3 81 870.7 81 847 81C823.3 81 799.7 81 776.2 81C752.7 81 729.3 81 705.8 81C682.3 81 658.7 81 635.2 81C611.7 81 588.3 81 564.8 81C541.3 81 517.7 81 494.2 81C470.7 81 447.3 81 423.8 81C400.3 81 376.7 81 353 81C329.3 81 305.7 81 282.2 81C258.7 81 235.3 81 211.8 81C188.3 81 164.7 81 141.2 81C117.7 81 94.3 81 70.8 81C47.3 81 23.7 81 11.8 81L0 81Z" fill="#fdf4e4"></path><path d="M0 42L11.8 45.7C23.7 49.3 47.3 56.7 70.8 56.8C94.3 57 117.7 50 141.2 46.3C164.7 42.7 188.3 42.3 211.8 44.7C235.3 47 258.7 52 282.2 54.2C305.7 56.3 329.3 55.7 353 55.8C376.7 56 400.3 57 423.8 57C447.3 57 470.7 56 494.2 56.7C517.7 57.3 541.3 59.7 564.8 58.5C588.3 57.3 611.7 52.7 635.2 49.2C658.7 45.7 682.3 43.3 705.8 43.3C729.3 43.3 752.7 45.7 776.2 45.8C799.7 46 823.3 44 847 44.8C870.7 45.7 894.3 49.3 917.8 49.3C941.3 49.3 964.7 45.7 988.2 46.8C1011.7 48 1035.3 54 1058.8 56.5C1082.3 59 1105.7 58 1129.2 57.5C1152.7 57 1176.3 57 1188.2 57L1200 57L1200 81L1188.2 81C1176.3 81 1152.7 81 1129.2 81C1105.7 81 1082.3 81 1058.8 81C1035.3 81 1011.7 81 988.2 81C964.7 81 941.3 81 917.8 81C894.3 81 870.7 81 847 81C823.3 81 799.7 81 776.2 81C752.7 81 729.3 81 705.8 81C682.3 81 658.7 81 635.2 81C611.7 81 588.3 81 564.8 81C541.3 81 517.7 81 494.2 81C470.7 81 447.3 81 423.8 81C400.3 81 376.7 81 353 81C329.3 81 305.7 81 282.2 81C258.7 81 235.3 81 211.8 81C188.3 81 164.7 81 141.2 81C117.7 81 94.3 81 70.8 81C47.3 81 23.7 81 11.8 81L0 81Z" fill="#fbefdd"></path><path d="M0 61L11.8 58.7C23.7 56.3 47.3 51.7 70.8 49.7C94.3 47.7 117.7 48.3 141.2 49.3C164.7 50.3 188.3 51.7 211.8 52C235.3 52.3 258.7 51.7 282.2 53.8C305.7 56 329.3 61 353 61.5C376.7 62 400.3 58 423.8 55.3C447.3 52.7 470.7 51.3 494.2 52.5C517.7 53.7 541.3 57.3 564.8 58.3C588.3 59.3 611.7 57.7 635.2 55.5C658.7 53.3 682.3 50.7 705.8 49.2C729.3 47.7 752.7 47.3 776.2 50.5C799.7 53.7 823.3 60.3 847 60.5C870.7 60.7 894.3 54.3 917.8 51.5C941.3 48.7 964.7 49.3 988.2 49.5C1011.7 49.7 1035.3 49.3 1058.8 51.3C1082.3 53.3 1105.7 57.7 1129.2 57.2C1152.7 56.7 1176.3 51.3 1188.2 48.7L1200 46L1200 81L1188.2 81C1176.3 81 1152.7 81 1129.2 81C1105.7 81 1082.3 81 1058.8 81C1035.3 81 1011.7 81 988.2 81C964.7 81 941.3 81 917.8 81C894.3 81 870.7 81 847 81C823.3 81 799.7 81 776.2 81C752.7 81 729.3 81 705.8 81C682.3 81 658.7 81 635.2 81C611.7 81 588.3 81 564.8 81C541.3 81 517.7 81 494.2 81C470.7 81 447.3 81 423.8 81C400.3 81 376.7 81 353 81C329.3 81 305.7 81 282.2 81C258.7 81 235.3 81 211.8 81C188.3 81 164.7 81 141.2 81C117.7 81 94.3 81 70.8 81C47.3 81 23.7 81 11.8 81L0 81Z" fill="#f9ebd5"></path><path d="M0 71L11.8 69.5C23.7 68 47.3 65 70.8 62.7C94.3 60.3 117.7 58.7 141.2 58.2C164.7 57.7 188.3 58.3 211.8 60.5C235.3 62.7 258.7 66.3 282.2 66C305.7 65.7 329.3 61.3 353 60.5C376.7 59.7 400.3 62.3 423.8 62.2C447.3 62 470.7 59 494.2 57.5C517.7 56 541.3 56 564.8 56.5C588.3 57 611.7 58 635.2 59C658.7 60 682.3 61 705.8 60.8C729.3 60.7 752.7 59.3 776.2 60.7C799.7 62 823.3 66 847 66C870.7 66 894.3 62 917.8 60.2C941.3 58.3 964.7 58.7 988.2 58.2C1011.7 57.7 1035.3 56.3 1058.8 56.7C1082.3 57 1105.7 59 1129.2 59.7C1152.7 60.3 1176.3 59.7 1188.2 59.3L1200 59L1200 81L1188.2 81C1176.3 81 1152.7 81 1129.2 81C1105.7 81 1082.3 81 1058.8 81C1035.3 81 1011.7 81 988.2 81C964.7 81 941.3 81 917.8 81C894.3 81 870.7 81 847 81C823.3 81 799.7 81 776.2 81C752.7 81 729.3 81 705.8 81C682.3 81 658.7 81 635.2 81C611.7 81 588.3 81 564.8 81C541.3 81 517.7 81 494.2 81C470.7 81 447.3 81 423.8 81C400.3 81 376.7 81 353 81C329.3 81 305.7 81 282.2 81C258.7 81 235.3 81 211.8 81C188.3 81 164.7 81 141.2 81C117.7 81 94.3 81 70.8 81C47.3 81 23.7 81 11.8 81L0 81Z" fill="#f8e6cd"></path><path d="M0 66L11.8 67.2C23.7 68.3 47.3 70.7 70.8 71.3C94.3 72 117.7 71 141.2 70.2C164.7 69.3 188.3 68.7 211.8 68.3C235.3 68 258.7 68 282.2 68.7C305.7 69.3 329.3 70.7 353 70.8C376.7 71 400.3 70 423.8 69C447.3 68 470.7 67 494.2 66.7C517.7 66.3 541.3 66.7 564.8 67.3C588.3 68 611.7 69 635.2 69.7C658.7 70.3 682.3 70.7 705.8 70.8C729.3 71 752.7 71 776.2 71.5C799.7 72 823.3 73 847 72.7C870.7 72.3 894.3 70.7 917.8 70.7C941.3 70.7 964.7 72.3 988.2 71.3C1011.7 70.3 1035.3 66.7 1058.8 65.3C1082.3 64 1105.7 65 1129.2 66.5C1152.7 68 1176.3 70 1188.2 71L1200 72L1200 81L1188.2 81C1176.3 81 1152.7 81 1129.2 81C1105.7 81 1082.3 81 1058.8 81C1035.3 81 1011.7 81 988.2 81C964.7 81 941.3 81 917.8 81C894.3 81 870.7 81 847 81C823.3 81 799.7 81 776.2 81C752.7 81 729.3 81 705.8 81C682.3 81 658.7 81 635.2 81C611.7 81 588.3 81 564.8 81C541.3 81 517.7 81 494.2 81C470.7 81 447.3 81 423.8 81C400.3 81 376.7 81 353 81C329.3 81 305.7 81 282.2 81C258.7 81 235.3 81 211.8 81C188.3 81 164.7 81 141.2 81C117.7 81 94.3 81 70.8 81C47.3 81 23.7 81 11.8 81L0 81Z" fill="#f7e1c6"></path></svg>