<svg id="visual" viewBox="0 0 1200 80" width="1200" height="80" xmlns="http://www.w3.org/2000/svg" xmlns:xlink="http://www.w3.org/1999/xlink" version="1.1"><path d="M0 42L11.8 44.5C23.7 47 47.3 52 70.8 49C94.3 46 117.7 35 141.2 32.2C164.7 29.3 188.3 34.7 211.8 39.5C235.3 44.3 258.7 48.7 282.2 45.8C305.7 43 329.3 33 353 32C376.7 31 400.3 39 423.8 41.2C447.3 43.3 470.7 39.7 494.2 40.2C517.7 40.7 541.3 45.3 564.8 46.7C588.3 48 611.7 46 635.2 44.5C658.7 43 682.3 42 705.8 42.8C729.3 43.7 752.7 46.3 776.2 45.5C799.7 44.7 823.3 40.3 847 36.2C870.7 32 894.3 28 917.8 28.8C941.3 29.7 964.7 35.3 988.2 36.5C1011.7 37.7 1035.3 34.3 1058.8 37.2C1082.3 40 1105.7 49 1129.2 49.5C1152.7 50 1176.3 42 1188.2 38L1200 34L1200 0L1188.2 0C1176.3 0 1152.7 0 1129.2 0C1105.7 0 1082.3 0 1058.8 0C1035.3 0 1011.7 0 988.2 0C964.7 0 941.3 0 917.8 0C894.3 0 870.7 0 847 0C823.3 0 799.7 0 776.2 0C752.7 0 729.3 0 705.8 0C682.3 0 658.7 0 635.2 0C611.7 0 588.3 0 564.8 0C541.3 0 517.7 0 494.2 0C470.7 0 447.3 0 423.8 0C400.3 0 376.7 0 353 0C329.3 0 305.7 0 282.2 0C258.7 0 235.3 0 211.8 0C188.3 0 164.7 0 141.2 0C117.7 0 94.3 0 70.8 0C47.3 0 23.7 0 11.8 0L0 0Z" fill="#fff9ec"></path><path d="M0 25L11.8 29C23.7 33 47.3 41 70.8 44.5C94.3 48 117.7 47 141.2 45C164.7 43 188.3 40 211.8 38.2C235.3 36.3 258.7 35.7 282.2 36.8C305.7 38 329.3 41 353 39.3C376.7 37.7 400.3 31.3 423.8 30.7C447.3 30 470.7 35 494.2 35.3C517.7 35.7 541.3 31.3 564.8 31.7C588.3 32 611.7 37 635.2 38.7C658.7 40.3 682.3 38.7 705.8 37.2C729.3 35.7 752.7 34.3 776.2 32.5C799.7 30.7 823.3 28.3 847 30.2C870.7 32 894.3 38 917.8 37.5C941.3 37 964.7 30 988.2 30.2C1011.7 30.3 1035.3 37.7 1058.8 38.5C1082.3 39.3 1105.7 33.7 1129.2 34.3C1152.7 35 1176.3 42 1188.2 45.5L1200 49L1200 0L1188.2 0C1176.3 0 1152.7 0 1129.2 0C1105.7 0 1082.3 0 1058.8 0C1035.3 0 1011.7 0 988.2 0C964.7 0 941.3 0 917.8 0C894.3 0 870.7 0 847 0C823.3 0 799.7 0 776.2 0C752.7 0 729.3 0 705.8 0C682.3 0 658.7 0 635.2 0C611.7 0 588.3 0 564.8 0C541.3 0 517.7 0 494.2 0C470.7 0 447.3 0 423.8 0C400.3 0 376.7 0 353 0C329.3 0 305.7 0 282.2 0C258.7 0 235.3 0 211.8 0C188.3 0 164.7 0 141.2 0C117.7 0 94.3 0 70.8 0C47.3 0 23.7 0 11.8 0L0 0Z" fill="#fdf4e4"></path><path d="M0 36L11.8 32.3C23.7 28.7 47.3 21.3 70.8 21.2C94.3 21 117.7 28 141.2 31.7C164.7 35.3 188.3 35.7 211.8 33.3C235.3 31 258.7 26 282.2 23.8C305.7 21.7 329.3 22.3 353 22.2C376.7 22 400.3 21 423.8 21C447.3 21 470.7 22 494.2 21.3C517.7 20.7 541.3 18.3 564.8 19.5C588.3 20.7 611.7 25.3 635.2 28.8C658.7 32.3 682.3 34.7 705.8 34.7C729.3 34.7 752.7 32.3 776.2 32.2C799.7 32 823.3 34 847 33.2C870.7 32.3 894.3 28.7 917.8 28.7C941.3 28.7 964.7 32.3 988.2 31.2C1011.7 30 1035.3 24 1058.8 21.5C1082.3 19 1105.7 20 1129.2 20.5C1152.7 21 1176.3 21 1188.2 21L1200 21L1200 0L1188.2 0C1176.3 0 1152.7 0 1129.2 0C1105.7 0 1082.3 0 1058.8 0C1035.3 0 1011.7 0 988.2 0C964.7 0 941.3 0 917.8 0C894.3 0 870.7 0 847 0C823.3 0 799.7 0 776.2 0C752.7 0 729.3 0 705.8 0C682.3 0 658.7 0 635.2 0C611.7 0 588.3 0 564.8 0C541.3 0 517.7 0 494.2 0C470.7 0 447.3 0 423.8 0C400.3 0 376.7 0 353 0C329.3 0 305.7 0 282.2 0C258.7 0 235.3 0 211.8 0C188.3 0 164.7 0 141.2 0C117.7 0 94.3 0 70.8 0C47.3 0 23.7 0 11.8 0L0 0Z" fill="#fbefdd"></path><path d="M0 17L11.8 19.3C23.7 21.7 47.3 26.3 70.8 28.3C94.3 30.3 117.7 29.7 141.2 28.7C164.7 27.7 188.3 26.3 211.8 26C235.3 25.7 258.7 26.3 282.2 24.2C305.7 22 329.3 17 353 16.5C376.7 16 400.3 20 423.8 22.7C447.3 25.3 470.7 26.7 494.2 25.5C517.7 24.3 541.3 20.7 564.8 19.7C588.3 18.7 611.7 20.3 635.2 22.5C658.7 24.7 682.3 27.3 705.8 28.8C729.3 30.3 752.7 30.7 776.2 27.5C799.7 24.3 823.3 17.7 847 17.5C870.7 17.3 894.3 23.7 917.8 26.5C941.3 29.3 964.7 28.7 988.2 28.5C1011.7 28.3 1035.3 28.7 1058.8 26.7C1082.3 24.7 1105.7 20.3 1129.2 20.8C1152.7 21.3 1176.3 26.7 1188.2 29.3L1200 32L1200 0L1188.2 0C1176.3 0 1152.7 0 1129.2 0C1105.7 0 1082.3 0 1058.8 0C1035.3 0 1011.7 0 988.2 0C964.7 0 941.3 0 917.8 0C894.3 0 870.7 0 847 0C823.3 0 799.7 0 776.2 0C752.7 0 729.3 0 705.8 0C682.3 0 658.7 0 635.2 0C611.7 0 588.3 0 564.8 0C541.3 0 517.7 0 494.2 0C470.7 0 447.3 0 423.8 0C400.3 0 376.7 0 353 0C329.3 0 305.7 0 282.2 0C258.7 0 235.3 0 211.8 0C188.3 0 164.7 0 141.2 0C117.7 0 94.3 0 70.8 0C47.3 0 23.7 0 11.8 0L0 0Z" fill="#f9ebd5"></path><path d="M0 7L11.8 8.5C23.7 10 47.3 13 70.8 15.3C94.3 17.7 117.7 19.3 141.2 19.8C164.7 20.3 188.3 19.7 211.8 17.5C235.3 15.3 258.7 11.7 282.2 12C305.7 12.3 329.3 16.7 353 17.5C376.7 18.3 400.3 15.7 423.8 15.8C447.3 16 470.7 19 494.2 20.5C517.7 22 541.3 22 564.8 21.5C588.3 21 611.7 20 635.2 19C658.7 18 682.3 17 705.8 17.2C729.3 17.3 752.7 18.7 776.2 17.3C799.7 16 823.3 12 847 12C870.7 12 894.3 16 917.8 17.8C941.3 19.7 964.7 19.3 988.2 19.8C1011.7 20.3 1035.3 21.7 1058.8 21.3C1082.3 21 1105.7 19 1129.2 18.3C1152.7 17.7 1176.3 18.3 1188.2 18.7L1200 19L1200 0L1188.2 0C1176.3 0 1152.7 0 1129.2 0C1105.7 0 1082.3 0 1058.8 0C1035.3 0 1011.7 0 988.2 0C964.7 0 941.3 0 917.8 0C894.3 0 870.7 0 847 0C823.3 0 799.7 0 776.2 0C752.7 0 729.3 0 705.8 0C682.3 0 658.7 0 635.2 0C611.7 0 588.3 0 564.8 0C541.3 0 517.7 0 494.2 0C470.7 0 447.3 0 423.8 0C400.3 0 376.7 0 353 0C329.3 0 305.7 0 282.2 0C258.7 0 235.3 0 211.8 0C188.3 0 164.7 0 141.2 0C117.7 0 94.3 0 70.8 0C47.3 0 23.7 0 11.8 0L0 0Z" fill="#f8e6cd"></path><path d="M0 12L11.8 10.8C23.7 9.7 47.3 7.3 70.8 6.7C94.3 6 117.7 7 141.2 7.8C164.7 8.7 188.3 9.3 211.8 9.7C235.3 10 258.7 10 282.2 9.3C305.7 8.7 329.3 7.3 353 7.2C376.7 7 400.3 8 423.8 9C447.3 10 470.7 11 494.2 11.3C517.7 11.7 541.3 11.3 564.8 10.7C588.3 10 611.7 9 635.2 8.3C658.7 7.7 682.3 7.3 705.8 7.2C729.3 7 752.7 7 776.2 6.5C799.7 6 823.3 5 847 5.3C870.7 5.7 894.3 7.3 917.8 7.3C941.3 7.3 964.7 5.7 988.2 6.7C1011.7 7.7 1035.3 11.3 1058.8 12.7C1082.3 14 1105.7 13 1129.2 11.5C1152.7 10 1176.3 8 1188.2 7L1200 6L1200 0L1188.2 0C1176.3 0 1152.7 0 1129.2 0C1105.7 0 1082.3 0 1058.8 0C1035.3 0 1011.7 0 988.2 0C964.7 0 941.3 0 917.8 0C894.3 0 870.7 0 847 0C823.3 0 799.7 0 776.2 0C752.7 0 729.3 0 705.8 0C682.3 0 658.7 0 635.2 0C611.7 0 588.3 0 564.8 0C541.3 0 517.7 0 494.2 0C470.7 0 447.3 0 423.8 0C400.3 0 376.7 0 353 0C329.3 0 305.7 0 282.2 0C258.7 0 235.3 0 211.8 0C188.3 0 164.7 0 141.2 0C117.7 0 94.3 0 70.8 0C47.3 0 23.7 0 11.8 0L0 0Z" fill="#f7e1c6"></path></svg>