<svg id="visual" viewBox="0 0 1200 80" width="1200" height="80" xmlns="http://www.w3.org/2000/svg" xmlns:xlink="http://www.w3.org/1999/xlink" version="1.1"><rect x="0" y="0" width="1200" height="80" fill="#b8a8d1"></rect><path d="M0 37L12.5 35.2C25 33.3 50 29.7 75 29.8C100 30 125 34 150 35.5C175 37 200 36 225 34.8C250 33.7 275 32.3 300 35.5C325 38.7 350 46.3 375 46.7C400 47 425 40 450 37.5C475 35 500 37 525 38C550 39 575 39 600 39.8C625 40.7 650 42.3 675 41.5C700 40.7 725 37.3 750 38.8C775 40.3 800 46.7 825 47.2C850 47.7 875 42.3 900 42.5C925 42.7 950 48.3 975 47.8C1000 47.3 1025 40.7 1050 39.8C1075 39 1100 44 1125 44.8C1150 45.7 1175 42.3 1187.5 40.7L1200 39L1200 0L1187.5 0C1175 0 1150 0 1125 0C1100 0 1075 0 1050 0C1025 0 1000 0 975 0C950 0 925 0 900 0C875 0 850 0 825 0C800 0 775 0 750 0C725 0 700 0 675 0C650 0 625 0 600 0C575 0 550 0 525 0C500 0 475 0 450 0C425 0 400 0 375 0C350 0 325 0 300 0C275 0 250 0 225 0C200 0 175 0 150 0C125 0 100 0 75 0C50 0 25 0 12.5 0L0 0Z" fill="#57bbb3" stroke-linecap="round" stroke-linejoin="miter"></path></svg>