<svg id="visual" viewBox="0 0 1200 80" width="1200" height="80" xmlns="http://www.w3.org/2000/svg" xmlns:xlink="http://www.w3.org/1999/xlink" version="1.1"><rect x="0" y="0" width="1200" height="80" fill="#f7e1c6"></rect><path d="M0 51L11.2 48.5C22.3 46 44.7 41 66.8 37.3C89 33.7 111 31.3 133.2 28.7C155.3 26 177.7 23 200 27.2C222.3 31.3 244.7 42.7 266.8 42.8C289 43 311 32 333.2 26.2C355.3 20.3 377.7 19.7 400 24.7C422.3 29.7 444.7 40.3 466.8 42.8C489 45.3 511 39.7 533.2 38.8C555.3 38 577.7 42 600 39.7C622.3 37.3 644.7 28.7 666.8 28.5C689 28.3 711 36.7 733.2 41.7C755.3 46.7 777.7 48.3 800 47.7C822.3 47 844.7 44 866.8 43C889 42 911 43 933.2 44.2C955.3 45.3 977.7 46.7 1000 44.3C1022.3 42 1044.7 36 1066.8 31.3C1089 26.7 1111 23.3 1133.2 28C1155.3 32.7 1177.7 45.3 1188.8 51.7L1200 58L1200 81L1188.8 81C1177.7 81 1155.3 81 1133.2 81C1111 81 1089 81 1066.8 81C1044.7 81 1022.3 81 1000 81C977.7 81 955.3 81 933.2 81C911 81 889 81 866.8 81C844.7 81 822.3 81 800 81C777.7 81 755.3 81 733.2 81C711 81 689 81 666.8 81C644.7 81 622.3 81 600 81C577.7 81 555.3 81 533.2 81C511 81 489 81 466.8 81C444.7 81 422.3 81 400 81C377.7 81 355.3 81 333.2 81C311 81 289 81 266.8 81C244.7 81 222.3 81 200 81C177.7 81 155.3 81 133.2 81C111 81 89 81 66.8 81C44.7 81 22.3 81 11.2 81L0 81Z" fill="#57bbb3" stroke-linecap="round" stroke-linejoin="miter"></path></svg>