<svg id="visual" viewBox="0 0 1200 80" width="1200" height="80" xmlns="http://www.w3.org/2000/svg" xmlns:xlink="http://www.w3.org/1999/xlink" version="1.1"><rect x="0" y="0" width="1200" height="80" fill="#b8a8d1"></rect><path d="M0 41L12.5 42.8C25 44.7 50 48.3 75 48.2C100 48 125 44 150 42.5C175 41 200 42 225 43.2C250 44.3 275 45.7 300 42.5C325 39.3 350 31.7 375 31.3C400 31 425 38 450 40.5C475 43 500 41 525 40C550 39 575 39 600 38.2C625 37.3 650 35.7 675 36.5C700 37.3 725 40.7 750 39.2C775 37.7 800 31.3 825 30.8C850 30.3 875 35.7 900 35.5C925 35.3 950 29.7 975 30.2C1000 30.7 1025 37.3 1050 38.2C1075 39 1100 34 1125 33.2C1150 32.3 1175 35.7 1187.5 37.3L1200 39L1200 81L1187.5 81C1175 81 1150 81 1125 81C1100 81 1075 81 1050 81C1025 81 1000 81 975 81C950 81 925 81 900 81C875 81 850 81 825 81C800 81 775 81 750 81C725 81 700 81 675 81C650 81 625 81 600 81C575 81 550 81 525 81C500 81 475 81 450 81C425 81 400 81 375 81C350 81 325 81 300 81C275 81 250 81 225 81C200 81 175 81 150 81C125 81 100 81 75 81C50 81 25 81 12.5 81L0 81Z" fill="#57bbb3" stroke-linecap="round" stroke-linejoin="miter"></path></svg>