<svg id="visual" viewBox="0 0 1200 80" width="1200" height="80" xmlns="http://www.w3.org/2000/svg" xmlns:xlink="http://www.w3.org/1999/xlink" version="1.1"><rect x="0" y="0" width="1200" height="80" fill="#b8a8d1"></rect><path d="M0 52L14.3 48.7C28.7 45.3 57.3 38.7 85.8 36.2C114.3 33.7 142.7 35.3 171.2 37.7C199.7 40 228.3 43 257 42.7C285.7 42.3 314.3 38.7 343 39.8C371.7 41 400.3 47 428.8 48.2C457.3 49.3 485.7 45.7 514.2 44.2C542.7 42.7 571.3 43.3 600 41.5C628.7 39.7 657.3 35.3 685.8 34C714.3 32.7 742.7 34.3 771.2 33C799.7 31.7 828.3 27.3 857 30.2C885.7 33 914.3 43 943 47.2C971.7 51.3 1000.3 49.7 1028.8 48.2C1057.3 46.7 1085.7 45.3 1114.2 45.8C1142.7 46.3 1171.3 48.7 1185.7 49.8L1200 51L1200 0L1185.7 0C1171.3 0 1142.7 0 1114.2 0C1085.7 0 1057.3 0 1028.8 0C1000.3 0 971.7 0 943 0C914.3 0 885.7 0 857 0C828.3 0 799.7 0 771.2 0C742.7 0 714.3 0 685.8 0C657.3 0 628.7 0 600 0C571.3 0 542.7 0 514.2 0C485.7 0 457.3 0 428.8 0C400.3 0 371.7 0 343 0C314.3 0 285.7 0 257 0C228.3 0 199.7 0 171.2 0C142.7 0 114.3 0 85.8 0C57.3 0 28.7 0 14.3 0L0 0Z" fill="#c4ab8b" stroke-linecap="round" stroke-linejoin="miter"></path></svg>