<svg id="visual" viewBox="0 0 1200 80" width="1200" height="80" xmlns="http://www.w3.org/2000/svg" xmlns:xlink="http://www.w3.org/1999/xlink" version="1.1"><rect x="0" y="0" width="1200" height="80" fill="#f7e1c6"></rect><path d="M0 22L18.2 26C36.3 30 72.7 38 109 40.7C145.3 43.3 181.7 40.7 218 37.5C254.3 34.3 290.7 30.7 327 34C363.3 37.3 399.7 47.7 436 46.3C472.3 45 508.7 32 545.2 30.8C581.7 29.7 618.3 40.3 654.8 44.8C691.3 49.3 727.7 47.7 764 42.3C800.3 37 836.7 28 873 27C909.3 26 945.7 33 982 34.5C1018.3 36 1054.7 32 1091 32.3C1127.3 32.7 1163.7 37.3 1181.8 39.7L1200 42L1200 0L1181.8 0C1163.7 0 1127.3 0 1091 0C1054.7 0 1018.3 0 982 0C945.7 0 909.3 0 873 0C836.7 0 800.3 0 764 0C727.7 0 691.3 0 654.8 0C618.3 0 581.7 0 545.2 0C508.7 0 472.3 0 436 0C399.7 0 363.3 0 327 0C290.7 0 254.3 0 218 0C181.7 0 145.3 0 109 0C72.7 0 36.3 0 18.2 0L0 0Z" fill="#d3c6e8" stroke-linecap="round" stroke-linejoin="miter"></path></svg>