<svg id="visual" viewBox="0 0 1200 80" width="1200" height="80" xmlns="http://www.w3.org/2000/svg" xmlns:xlink="http://www.w3.org/1999/xlink" version="1.1"><rect x="0" y="0" width="1200" height="80" fill="#f7e1c6"></rect><path d="M0 22L22.2 27.7C44.3 33.3 88.7 44.7 133.2 48C177.7 51.3 222.3 46.7 266.8 46C311.3 45.3 355.7 48.7 400 47.2C444.3 45.7 488.7 39.3 533.2 34C577.7 28.7 622.3 24.3 666.8 26.5C711.3 28.7 755.7 37.3 800 43.3C844.3 49.3 888.7 52.7 933.2 49.3C977.7 46 1022.3 36 1066.8 30.5C1111.3 25 1155.7 24 1177.8 23.5L1200 23L1200 81L1177.8 81C1155.7 81 1111.3 81 1066.8 81C1022.3 81 977.7 81 933.2 81C888.7 81 844.3 81 800 81C755.7 81 711.3 81 666.8 81C622.3 81 577.7 81 533.2 81C488.7 81 444.3 81 400 81C355.7 81 311.3 81 266.8 81C222.3 81 177.7 81 133.2 81C88.7 81 44.3 81 22.2 81L0 81Z" fill="#57bbb3" stroke-linecap="round" stroke-linejoin="miter"></path></svg>