<svg id="visual" viewBox="0 0 1200 80" width="1200" height="80" xmlns="http://www.w3.org/2000/svg" xmlns:xlink="http://www.w3.org/1999/xlink" version="1.1"><rect x="0" y="0" width="1200" height="80" fill="#f7e1c6"></rect><path d="M0 56L18.2 52C36.3 48 72.7 40 109 37.3C145.3 34.7 181.7 37.3 218 40.5C254.3 43.7 290.7 47.3 327 44C363.3 40.7 399.7 30.3 436 31.7C472.3 33 508.7 46 545.2 47.2C581.7 48.3 618.3 37.7 654.8 33.2C691.3 28.7 727.7 30.3 764 35.7C800.3 41 836.7 50 873 51C909.3 52 945.7 45 982 43.5C1018.3 42 1054.7 46 1091 45.7C1127.3 45.3 1163.7 40.7 1181.8 38.3L1200 36L1200 81L1181.8 81C1163.7 81 1127.3 81 1091 81C1054.7 81 1018.3 81 982 81C945.7 81 909.3 81 873 81C836.7 81 800.3 81 764 81C727.7 81 691.3 81 654.8 81C618.3 81 581.7 81 545.2 81C508.7 81 472.3 81 436 81C399.7 81 363.3 81 327 81C290.7 81 254.3 81 218 81C181.7 81 145.3 81 109 81C72.7 81 36.3 81 18.2 81L0 81Z" fill="#d3c6e8" stroke-linecap="round" stroke-linejoin="miter"></path></svg>