<svg id="visual" viewBox="0 0 1200 80" width="1200" height="80" xmlns="http://www.w3.org/2000/svg" xmlns:xlink="http://www.w3.org/1999/xlink" version="1.1"><rect x="0" y="0" width="1200" height="80" fill="#b8a8d1"></rect><path d="M0 50L28.5 51.2C57 52.3 114 54.7 171.2 49.8C228.3 45 285.7 33 342.8 29.2C400 25.3 457 29.7 514.2 31C571.3 32.3 628.7 30.7 685.8 31.3C743 32 800 35 857.2 38.5C914.3 42 971.7 46 1028.8 45.5C1086 45 1143 40 1171.5 37.5L1200 35L1200 0L1171.5 0C1143 0 1086 0 1028.8 0C971.7 0 914.3 0 857.2 0C800 0 743 0 685.8 0C628.7 0 571.3 0 514.2 0C457 0 400 0 342.8 0C285.7 0 228.3 0 171.2 0C114 0 57 0 28.5 0L0 0Z" fill="#57bbb3" stroke-linecap="round" stroke-linejoin="miter"></path></svg>