<svg id="visual" viewBox="0 0 1200 80" width="1200" height="80" xmlns="http://www.w3.org/2000/svg" xmlns:xlink="http://www.w3.org/1999/xlink" version="1.1"><rect x="0" y="0" width="1200" height="80" fill="#f7e1c6"></rect><path d="M0 56L11.2 51C22.3 46 44.7 36 66.8 35.3C89 34.7 111 43.3 133.2 44.7C155.3 46 177.7 40 200 35.8C222.3 31.7 244.7 29.3 266.8 33.2C289 37 311 47 333.2 46.5C355.3 46 377.7 35 400 34C422.3 33 444.7 42 466.8 45.2C489 48.3 511 45.7 533.2 44.7C555.3 43.7 577.7 44.3 600 42.3C622.3 40.3 644.7 35.7 666.8 37.7C689 39.7 711 48.3 733.2 52.2C755.3 56 777.7 55 800 52.3C822.3 49.7 844.7 45.3 866.8 42.5C889 39.7 911 38.3 933.2 40.3C955.3 42.3 977.7 47.7 1000 50C1022.3 52.3 1044.7 51.7 1066.8 49.2C1089 46.7 1111 42.3 1133.2 38.2C1155.3 34 1177.7 30 1188.8 28L1200 26L1200 0L1188.8 0C1177.7 0 1155.3 0 1133.2 0C1111 0 1089 0 1066.8 0C1044.7 0 1022.3 0 1000 0C977.7 0 955.3 0 933.2 0C911 0 889 0 866.8 0C844.7 0 822.3 0 800 0C777.7 0 755.3 0 733.2 0C711 0 689 0 666.8 0C644.7 0 622.3 0 600 0C577.7 0 555.3 0 533.2 0C511 0 489 0 466.8 0C444.7 0 422.3 0 400 0C377.7 0 355.3 0 333.2 0C311 0 289 0 266.8 0C244.7 0 222.3 0 200 0C177.7 0 155.3 0 133.2 0C111 0 89 0 66.8 0C44.7 0 22.3 0 11.2 0L0 0Z" fill="#57bbb3" stroke-linecap="round" stroke-linejoin="miter"></path></svg>