<svg id="visual" viewBox="0 0 1200 80" width="1200" height="80" xmlns="http://www.w3.org/2000/svg" xmlns:xlink="http://www.w3.org/1999/xlink" version="1.1"><rect x="0" y="0" width="1200" height="80" fill="#b8a8d1"></rect><path d="M0 28L28.5 26.8C57 25.7 114 23.3 171.2 28.2C228.3 33 285.7 45 342.8 48.8C400 52.7 457 48.3 514.2 47C571.3 45.7 628.7 47.3 685.8 46.7C743 46 800 43 857.2 39.5C914.3 36 971.7 32 1028.8 32.5C1086 33 1143 38 1171.5 40.5L1200 43L1200 81L1171.5 81C1143 81 1086 81 1028.8 81C971.7 81 914.3 81 857.2 81C800 81 743 81 685.8 81C628.7 81 571.3 81 514.2 81C457 81 400 81 342.8 81C285.7 81 228.3 81 171.2 81C114 81 57 81 28.5 81L0 81Z" fill="#57bbb3" stroke-linecap="round" stroke-linejoin="miter"></path></svg>