<svg id="visual" viewBox="0 0 1200 80" width="1200" height="80" xmlns="http://www.w3.org/2000/svg" xmlns:xlink="http://www.w3.org/1999/xlink" version="1.1"><rect x="0" y="0" width="1200" height="80" fill="#f7e1c6"></rect><path d="M0 56L22.2 50.3C44.3 44.7 88.7 33.3 133.2 30C177.7 26.7 222.3 31.3 266.8 32C311.3 32.7 355.7 29.3 400 30.8C444.3 32.3 488.7 38.7 533.2 44C577.7 49.3 622.3 53.7 666.8 51.5C711.3 49.3 755.7 40.7 800 34.7C844.3 28.7 888.7 25.3 933.2 28.7C977.7 32 1022.3 42 1066.8 47.5C1111.3 53 1155.7 54 1177.8 54.5L1200 55L1200 0L1177.8 0C1155.7 0 1111.3 0 1066.8 0C1022.3 0 977.7 0 933.2 0C888.7 0 844.3 0 800 0C755.7 0 711.3 0 666.8 0C622.3 0 577.7 0 533.2 0C488.7 0 444.3 0 400 0C355.7 0 311.3 0 266.8 0C222.3 0 177.7 0 133.2 0C88.7 0 44.3 0 22.2 0L0 0Z" fill="#57bbb3" stroke-linecap="round" stroke-linejoin="miter"></path></svg>