<svg id="visual" viewBox="0 0 1200 80" width="1200" height="80" xmlns="http://www.w3.org/2000/svg" xmlns:xlink="http://www.w3.org/1999/xlink" version="1.1"><rect x="0" y="0" width="1200" height="80" fill="#b8a8d1"></rect><path d="M0 26L14.3 29.3C28.7 32.7 57.3 39.3 85.8 41.8C114.3 44.3 142.7 42.7 171.2 40.3C199.7 38 228.3 35 257 35.3C285.7 35.7 314.3 39.3 343 38.2C371.7 37 400.3 31 428.8 29.8C457.3 28.7 485.7 32.3 514.2 33.8C542.7 35.3 571.3 34.7 600 36.5C628.7 38.3 657.3 42.7 685.8 44C714.3 45.3 742.7 43.7 771.2 45C799.7 46.3 828.3 50.7 857 47.8C885.7 45 914.3 35 943 30.8C971.7 26.7 1000.3 28.3 1028.8 29.8C1057.3 31.3 1085.7 32.7 1114.2 32.2C1142.7 31.7 1171.3 29.3 1185.7 28.2L1200 27L1200 81L1185.7 81C1171.3 81 1142.7 81 1114.2 81C1085.7 81 1057.3 81 1028.8 81C1000.3 81 971.7 81 943 81C914.3 81 885.7 81 857 81C828.3 81 799.7 81 771.2 81C742.7 81 714.3 81 685.8 81C657.3 81 628.7 81 600 81C571.3 81 542.7 81 514.2 81C485.7 81 457.3 81 428.8 81C400.3 81 371.7 81 343 81C314.3 81 285.7 81 257 81C228.3 81 199.7 81 171.2 81C142.7 81 114.3 81 85.8 81C57.3 81 28.7 81 14.3 81L0 81Z" fill="#c4ab8b" stroke-linecap="round" stroke-linejoin="miter"></path></svg>