<?xml version="1.0" encoding="UTF-8"?>
<svg id="Layer_1" data-name="Layer 1" xmlns="http://www.w3.org/2000/svg" viewBox="0 0 300 300">
  <defs>
    <style>
      .cls-1 {
        fill: #1fa59a;
      }

      .cls-2 {
        fill: #57bbb3;
      }
    </style>
  </defs>
  <g id="Teal_Pawprint" data-name="Teal Pawprint">
    <path id="Pad" class="cls-1" d="M71.22,187.06c6.63-5.55,15.4-7.68,21.89-13.3,6.33-5.47,9.84-13.56,15.45-19.71,23.76-26.03,66.01-24.41,87.69,3.27,6.51,8.32,11.76,16.89,20.36,23.31,7.48,5.58,15.3,10.75,20.12,18.99,9.9,16.81,5.17,41.21-11.68,53.42-16.55,15.14-42.04,14.23-60.06,1.7-19.58-14.12-30.1,2.12-48.57,7.16-43.7,12.29-81.13-42.64-45.22-74.85Z"/>
    <g id="Toes">
      <ellipse id="Far_Right_Toe" data-name="Far Right Toe" class="cls-1" cx="52.55" cy="138.58" rx="26.94" ry="31.75" transform="translate(-43.87 26.02) rotate(-19.82)"/>
      <ellipse id="Center_Right_Toe" data-name="Center Right Toe" class="cls-1" cx="109.06" cy="84.69" rx="34.37" ry="41.33" transform="translate(-12.93 20) rotate(-9.9)"/>
      <ellipse id="Center_Left_Toe" data-name="Center Left Toe" class="cls-1" cx="192.8" cy="84.69" rx="41.33" ry="34.37" transform="translate(87.94 267.3) rotate(-83.85)"/>
      <ellipse id="Far_Left_Toe" data-name="Far Left Toe" class="cls-1" cx="247.71" cy="138.58" rx="31.75" ry="26.94" transform="translate(50.88 343.09) rotate(-75.32)"/>
    </g>
    <g id="Highlights">
      <path id="Pad-2" data-name="Pad" class="cls-2" d="M125.36,174.11c-7.45-16.28-23.18,2.78-31.54,8.68-6.35,5.79-13.9,9.85-20.02,15.87-7.51,7.07-11.4,20.16-4.95,29.2,3.02,4.23,8.68,6.24,13.15,2.86,4.38-3.31,4.9-9.64,7.68-14.07,8.23-15.7,36.41-23.22,35.69-42.54Z"/>
      <path id="Far_Right" data-name="Far Right" class="cls-2" d="M248.7,110.8c-5.08-.47-10.65,3.24-14.03,6.89-.92,1.76,1.49,2.38,2.45,1.06,2.83-2.27,6.12-4.03,9.64-4.96,1.54-.1,3.64-1.54,1.94-2.99Z"/>
      <path id="Center_Right" data-name="Center Right" class="cls-2" d="M192.71,48.63c-4.32-6.35-18.65,6.87-20.4,11.98-1.01,1.67.29,3.99,2.26,3.94,2.84-.54,4.27-3.91,6.75-5.33,2.47-3.01,11.24-4.31,10.74-8.15.63-.57.9-1.61.65-2.43Z"/>
      <path id="Center_Left" data-name="Center Left" class="cls-2" d="M40.08,116.51c-3.18-6.03-12.6,9.13-10.36,12.62,2.34,1.29,2.52-3.29,3.75-4.54,1.16-3.49,5.83-4.78,6.61-8.08Z"/>
      <path id="Far_Left" data-name="Far Left" class="cls-2" d="M103.64,50.72c-7.19-6.28-19.07,6.16-21.3,13.11-.64,2.56-2.34,6-.64,8.37,1.06,1.1,3.07.93,3.87-.39,4.58-4.23,7.26-11.01,12.98-14.57,1.91-1.88,6.86-3.03,5.09-6.51Z"/>
    </g>
  </g>
</svg>