<?xml version="1.0" encoding="UTF-8"?>
<svg id="Portrait" xmlns="http://www.w3.org/2000/svg" viewBox="0 0 700 700">
  <defs>
    <style>
      .cls-1 {
        fill: #e8dcc5;
      }

      .cls-2 {
        fill: #39393a;
      }

      .cls-3 {
        letter-spacing: 0em;
      }

      .cls-4, .cls-5 {
        fill: #1fa59a;
      }

      .cls-6 {
        fill: #fbf7f0;
      }

      .cls-7 {
        fill: #666;
      }

      .cls-8 {
        letter-spacing: 0em;
      }

      .cls-9 {
        font-family: PlayfairDisplay-ExtraBold, 'Playfair Display';
        font-size: 60px;
        font-weight: 700;
      }

      .cls-9, .cls-10 {
        fill: #a08bc1;
      }

      .cls-11 {
        letter-spacing: 0em;
      }

      .cls-12 {
        letter-spacing: 0em;
      }

      .cls-13 {
        fill: #57bbb3;
      }

      .cls-14 {
        fill: #ab8f78;
      }

      .cls-5 {
        font-family: PlayfairDisplayRoman-Black, 'Playfair Display';
        font-size: 125px;
        font-variation-settings: 'wght' 900;
        font-weight: 800;
      }

      .cls-15 {
        fill: #b8a8d0;
      }
    </style>
  </defs>
  <g id="Character">
    <g id="Body_Color" data-name="Body Color">
      <path id="Body" class="cls-6" d="M629.56,249.5c-2.25-19.51-12.25-37.67-23.61-54-10.4-14.96-22.84-28.93-37.33-40.69-6.84-5.55-14.16-10.64-21.85-15.17-11.31-11.18-25.41-19.88-41.52-25.2-26.08-8.61-55.55-6.05-80.24,5.07-3.81,1.72-7.42,3.66-10.85,5.78-4.04,1.36-8.06,2.81-12.1,4.32.02,2.18-1.19,4.38-3.63,4.92-.06,1.17-.16,2.33-.34,3.5-.2,1.26-1.27,2.33-2.3,2.99-1.14.73-2.57.8-3.85.5-1.19-.27-2.38-1.26-2.99-2.3-.25-.43-.4-.85-.49-1.28-1.54-.11-2.68-.81-3.42-1.81-2.2.85-4.41,1.7-6.61,2.55-.32-.35-.77-.65-1.17-.72-3.91-.77-7.93-1.04-11.9-.71-3.98.34-7.91,1.16-11.65,2.56-2.18.82-4.31,1.79-6.33,2.94-.62.35-1.03,1-1.17,1.7-1.73.61-3.43,1.33-5.03,2.21-.57.31-.96.88-1.13,1.52-2.34-3.61-5.24-6.87-8.58-9.56-.17-.14-.35-.26-.52-.4-.73-1.75-1.46-3.5-2.21-5.24-1.25-2.91-2.62-5.81-4.52-8.36-.54-.73-1.12-1.43-1.73-2.1-.21-.92-.55-1.79-.94-2.65-.43-.95-1.03-1.79-1.69-2.6-.22-.24-.49-.41-.8-.51-.3-.16-.62-.23-.96-.21-.34-.01-.66.06-.96.21-.31.1-.57.27-.8.51-.43.47-.76,1.1-.73,1.76.03.22.06.44.09.66.08.29.22.54.4.78.08.11.15.23.23.34-2.08,1.91-4.16,3.82-6.24,5.73-.38.35-.6.82-.67,1.32-1.24,1.02-2.22,2.28-2.76,3.77-.67,1.85-1.54,3.59-2.58,5.22-3.48-.47-7.14.7-9.39,4.4-2.22,3.66-4.54,7.27-6.98,10.81-1.22-2.62-2.47-5.23-3.76-7.82-.09-.08-.17-.14-.26-.23-.06-.07-.12-.14-.19-.2-1.41.56-3.11.55-4.59-.24l-4.08-12.44c.42-1.43.45-3.07-.02-4.89-6.4-24.6-19.51-47.2-37.78-66.09-2.88-2.98-8.53-3.45-12.12-1.44-.05.03-.1.06-.15.08-3.22-.9-6.84-.47-9.62,2.12-.98.91-1.77,1.94-2.43,3.03-8.64,11.72-17.28,23.43-25.91,35.15-1.46,1.32-2.9,2.65-4.34,3.96-14.58,13.36-28.26,27.58-41.01,42.48-.02,1-.41,2.04-1.32,2.97-.36.37-.69.74-1.02,1.13-.13.52-.35,1.02-.66,1.47.51,1.43.37,3.08-.91,4.54-1.9,2.17-3.48,4.49-4.89,6.9-.44,1.49-.83,2.99-1.19,4.49-.16.74-.32,1.47-.52,2.19-.31,1.34-.62,2.67-.94,3.97-1.19,4.86-2.44,9.7-3.58,14.55,1.12,4.88,1.39,9.96,1.17,14.5-.29,5.82-1.93,11.17-3.52,16.7.02.15.04.3.06.45,1.44,11.15,1.6,22.32,2.5,33.51.75,9.32,1.66,18.63,2.14,27.96,1.77,3.62,3.48,7.27,5.05,10.97,3.07,7.29,5.28,14.85,7.69,22.34,2.46,7.63,5.63,41.31,6.12,49.62,1.07,17.79,3.08,35.36,14.93,50.14,11.4,14.22,27.78,24.04,45.78,29.84,14.56,4.69,30.09,6.35,45.58,6.6.5-.44,1.1-.81,1.8-1.07,12.91-4.68,26.25-8.22,39.52-11.9,13.83-3.84,31.71-.01,41.6-10.67,23.77-25.62,47.06-1.53,67.42,14.34.62-.05,1.24-.1,1.85-.15,12.55,4.21,25.5,7.32,39,8.62,22.42,2.15,46.75-2.1,65.81-13.44,21.99-13.09,33.68-34.19,35.82-57.88,2.19-24.28-4.94-48.62-10.79-72.08-4.41-17.68-8.82-35.37-13.23-53.05,1.11,2.39,2.33,4.73,3.67,7.04,7.79,15.26,16.97,31.04,32.82,40.29,16.08,9.38,35.79,7.58,50.4-3.21,15.43-11.4,21.99-29.99,19.94-47.72Z"/>
      <g id="Cheeks">
        <ellipse class="cls-14" cx="466.18" cy="399.11" rx="105.57" ry="59.77"/>
        <ellipse class="cls-1" cx="467.18" cy="396.11" rx="105.57" ry="59.77"/>
        <ellipse class="cls-14" cx="243.8" cy="398.94" rx="105.57" ry="59.77"/>
        <ellipse class="cls-1" cx="243.8" cy="395.94" rx="105.57" ry="59.77"/>
      </g>
    </g>
    <g id="Pawprint">
      <path id="Pad" class="cls-2" d="M269.8,352.85c7.28-6.09,16.91-8.44,24.05-14.61,6.96-6.01,10.81-14.89,16.98-21.65,26.09-28.59,72.51-26.81,96.32,3.59,7.16,9.14,12.91,18.55,22.36,25.6,8.21,6.13,16.81,11.81,22.1,20.86,10.87,18.46,5.67,45.27-12.83,58.68-18.18,16.63-46.18,15.63-65.97,1.87-21.51-15.51-33.06,2.33-53.35,7.87-48,13.5-89.11-46.84-49.67-82.21Z"/>
      <g id="Toes">
        <ellipse id="Far_Right_Toe" data-name="Far Right Toe" class="cls-2" cx="249.29" cy="299.6" rx="29.6" ry="34.88" transform="translate(-86.81 102.26) rotate(-19.82)"/>
        <ellipse id="Center_Right_Toe" data-name="Center Right Toe" class="cls-2" cx="311.36" cy="240.4" rx="37.75" ry="45.39" transform="translate(-36.68 57.09) rotate(-9.9)"/>
        <ellipse id="Center_Left_Toe" data-name="Center Left Toe" class="cls-2" cx="403.35" cy="240.4" rx="45.39" ry="37.75" transform="translate(121.11 615.66) rotate(-83.85)"/>
        <ellipse id="Far_Left_Toe" data-name="Far Left Toe" class="cls-2" cx="463.67" cy="299.6" rx="34.88" ry="29.6" transform="translate(56.35 672.2) rotate(-75.32)"/>
      </g>
      <g id="Highlights">
        <path id="Pad-2" data-name="Pad" class="cls-7" d="M329.27,338.61c-8.18-17.89-25.47,3.06-34.64,9.53-6.98,6.36-15.27,10.82-21.99,17.43-8.24,7.76-12.52,22.15-5.44,32.07,3.31,4.64,9.54,6.86,14.44,3.15,4.81-3.64,5.38-10.59,8.44-15.45,9.03-17.24,39.99-25.5,39.2-46.73Z"/>
        <path id="Far_Right" data-name="Far Right" class="cls-7" d="M464.75,269.08c-5.58-.52-11.7,3.56-15.41,7.57-1.01,1.93,1.64,2.62,2.69,1.17,3.11-2.5,6.72-4.43,10.59-5.45,1.69-.11,4-1.69,2.13-3.29Z"/>
        <path id="Center_Right" data-name="Center Right" class="cls-7" d="M403.25,200.79c-4.75-6.98-20.49,7.55-22.4,13.16-1.11,1.83.32,4.38,2.48,4.32,3.12-.6,4.69-4.3,7.41-5.86,2.71-3.31,12.35-4.74,11.79-8.96.69-.63.99-1.77.72-2.67Z"/>
        <path id="Center_Left" data-name="Center Left" class="cls-7" d="M235.6,275.35c-3.49-6.62-13.84,10.03-11.38,13.87,2.57,1.42,2.77-3.62,4.12-4.99,1.28-3.83,6.41-5.25,7.26-8.88Z"/>
        <path id="Far_Left" data-name="Far Left" class="cls-7" d="M305.41,203.09c-7.9-6.9-20.95,6.77-23.4,14.4-.7,2.81-2.57,6.59-.7,9.19,1.16,1.21,3.37,1.03,4.25-.43,5.04-4.65,7.97-12.09,14.26-16,2.1-2.06,7.54-3.33,5.6-7.15Z"/>
      </g>
    </g>
    <g id="Whiskers">
      <g id="Right">
        <path id="Bottom" class="cls-2" d="M558.87,406.9c8.54.01,17.07,2.24,24.79,5.89,6.27,2.6,11.58,7.26,14.7,13.39,0,0-.34.36-.34.36-3.64-1.54-6.75-3.44-9.86-5.29-2.25-1.3-4.53-3.08-6.66-4.59-2.24-1.52-4.64-2.81-7.08-3.98-4.97-2.41-10.16-4.13-15.61-5.29,0,0,.05-.5.05-.5h0Z"/>
        <path id="Middle" class="cls-2" d="M548.3,384.45c15.02-2.27,30.39-3.48,45.59-2.49,4.7.24,9.7.71,14.36,1.39,8.56,1.49,16.92,4.46,24.41,8.86,1.65,1,3.25,2.1,4.79,3.25l-.23.44c-1.88-.47-3.66-1.09-5.48-1.6-8.03-2.4-16.25-4.17-24.44-5.91-4.47-.93-9.24-1.92-13.78-2.45-5.48-.7-11.31-1.09-16.84-1.31-9.44-.4-18.86-.17-28.33.31,0,0-.05-.5-.05-.5h0Z"/>
        <path id="Top" class="cls-2" d="M544.55,366.71c16.94-9.06,34.93-16.38,53.67-20.83,12.51-3.32,25.78-4.06,38.54-1.78,2.12.41,4.22.92,6.3,1.49,0,0-.06.5-.06.5-4.2.27-8.53.34-12.71.65-9.38.61-18.73,1.84-28.07,3-2.77.43-6.56,1.04-9.3,1.65-16.54,3.48-32.56,9.19-48.15,15.78,0,0-.22-.45-.22-.45h0Z"/>
      </g>
      <g id="Left">
        <path id="Bottom-2" data-name="Bottom" class="cls-2" d="M150.33,411.16c-8.92,1.94-17.56,5.37-24.88,10.85-4.55,3.28-9,5.91-14.32,8.3,0,0-.34-.36-.34-.36,2.7-5.24,6.93-9.45,12.08-12.16,2.42-1.16,5.44-2.51,7.93-3.47,6.2-2.35,12.89-3.6,19.48-3.66,0,0,.05.5.05.5h0Z"/>
        <path id="Middle-2" data-name="Middle" class="cls-2" d="M160.8,388.71c-11.33-.58-22.66-.78-33.96-.01-7.42.43-14.99,1.29-22.25,2.91-9.11,1.87-18.26,3.81-27.18,6.46-1.82.51-3.6,1.13-5.48,1.6,0,0-.23-.44-.23-.44,1.55-1.14,3.14-2.24,4.79-3.25,7.49-4.4,15.85-7.37,24.41-8.86,7.55-1.1,15.35-1.56,22.97-1.74,4.66-.03,9.67.07,14.31.37,7.61.5,15.17,1.29,22.67,2.46,0,0-.05.5-.05.5h0Z"/>
        <path id="Top-2" data-name="Top" class="cls-2" d="M164.38,370.93c-16.55-7-33.6-12.99-51.23-16.41-1.55-.27-4.66-.78-6.21-1.02-9.34-1.16-18.69-2.39-28.07-3-4.18-.31-8.51-.38-12.71-.65,0,0-.06-.5-.06-.5,2.07-.57,4.18-1.07,6.3-1.49,9.55-1.68,19.46-1.74,29.04-.24,4.05.68,8.63,1.8,12.63,2.77,17.62,4.57,34.54,11.49,50.54,20.07,0,0-.22.45-.22.45h0Z"/>
      </g>
    </g>
    <g id="Ears">
      <g id="Dog_Ear" data-name="Dog Ear">
        <path class="cls-13" d="M417.8,112.92c2.39-2.23,4.88-4.3,7.47-6.23,10.34-5.4,21.79-8.68,33.91-9.44,13.35-.83,26.79,1.8,39.03,7.08,1.37.59,2.76,1.23,4.16,1.93.64.2,1.29.39,1.93.59,1.69-.06,3.33.16,4.93.58.03.07.06.14.09.21,1.22.37,2.32,1.13,2.97,2.26.07-.03.12-.06.19-.09.58-.23,1.16-.38,1.72-.48,1.84.89,3.63,1.92,5.36,2.92,4.02,2.31,8.05,4.58,12.11,6.81.57.45,1.14.9,1.71,1.35l1.95.67c4.75,2.64,9.43,5.46,13.64,8.9,3,2.45,5.58,5.26,8.09,8.16-.72.42-1.64.61-2.77.46-17.55-2.36-26.72,19.68-31.17,33.6-.77,7.64-1.55,15.28-2.32,22.92-.08.75-.27,1.4-.54,1.97l1.91,38.15c.12,2.5-1.76,4.25-3.92,4.77-.16.1-.33.18-.5.26-1.13-1.63-2.27-3.27-3.41-4.9-17.44-24.99-40.21-46.05-63.77-65.22-11.94-9.71-24.51-18.71-38.07-26.03-4.42-2.39-8.93-4.59-13.48-6.71,5.31-8.81,11.07-17.29,18.79-24.51Z"/>
        <path class="cls-4" d="M508.33,218.24c-6.95-10.6-13.28-21.58-20.21-32.19-8.55-13.1-18.34-24.53-31.03-33.78-5.32-3.88-11.04-7.66-17.14-10.2-.3-.12-.72-.27-1.21-.44-1.29-2.07-2.02-4.33-1.53-6.74,1.43-7.09,8.93-14.45,14.72-18.28,8.56-5.67,17.68-7.92,27.9-7.11,9.74.77,19.22,3.86,28.54,6.62,9.69,2.87,19.13,6.1,28.21,10.59,18.28,9.03,33.95,21.31,47.08,36.88,5.27,6.24,10.51,12.66,15.34,19.31,2.55,4.52,4.88,9.17,6.96,13.93,1.84,1.86,3.59,3.79,5.26,5.78,1.84,3.55,3.47,7.06,6.14,10.11.67.76,1.41,1.23,2.16,1.46,6.01,9.92,10.11,20.99,11.78,32.83,3.22,22.93-2.97,48.6-23.44,61.86-21.45,13.91-50.4,6.09-67.5-10.97-14.85-14.82-22.61-35.39-26.22-55.97,5.64-7.31-1.68-17.36-5.82-23.68Z"/>
      </g>
      <g id="Cat_Ear" data-name="Cat Ear">
        <path class="cls-15" d="M122.81,223.39c1.29-59.87,40.6-108.05,72.02-155.92,7.01-10.4,15.16-22,28.85-22.94,20.21-.99,28.36,20.19,36.97,34.64,9.4,21.95,25.74,42.3,29.75,66.05,4.24,4.64,3.33,11.42-.92,15.84-46.75,44.27-84.73,97.9-129.47,144.62-3,2.33-5.08,4.39-7.11,7.54-4.8,6.41-16.04,6.73-18.28-2.39-6.99-28.51-12.82-57.94-11.81-87.44Z"/>
        <path class="cls-10" d="M128.39,229.71c11.01-43.58,94.76-205.02,113.2-145.63,12.84,31.94,29.91,101.18,16.13,109.59l-70.69,83.57s-43.01,57.33-53.12,37.42c1.95-11.83-5.48-23.37-6.33-35.27-3.92-16.43-3.36-33.14.82-49.68Z"/>
      </g>
      <path id="Ears-2" data-name="Ears" class="cls-2" d="M143.29,130.09c85.91-111.53,90.82-135.07,148.35,12.21,29.82-36.88,21.07-50.6,47.28-4.36,15.72-11.22,37.48-11.66,53.73-1.34,44.99-80.92,150.4-31.41,193.62,26.27,25.4,27.73,54.34,61.65,50.76,101.95-1.42,33.06-29.69,64.89-64.6,57.91-46.03-7.7-64.89-58.48-62.62-100.25.1-6.43,10.1-6.45,10,0-.54,33.71,8.76,73.65,43.58,87.39,30.19,13.35,59.95-10.21,63.16-41.06,5.59-35.29-18.44-66.56-40.47-91.28-35.89-41.9-89.92-90.15-149.09-68.53-16.69,6.59-31.23,19.61-37.39,36.69-1.32,3.64-5.41,4.79-8.36,2.21-33.4-25.42-51.89,11.1-57.97.11-5.03-8.47-10.05-16.94-15.08-25.41-44.77,65.12-21.5,33.15-68.4-50.36-15.23-37.13-33.34-23.44-50.76,2.79-18.56,23.71-108.64,97.5-55.81,240.08,2.32,6.01-6.03,7.92-9.64,2.66-19.67-32.03-32.24-110.11,9.72-187.67Z"/>
    </g>
  </g>
  <g id="Text">
    <text class="cls-9" transform="translate(92.16 660.9)"><tspan x="0" y="0">~</tspan><tspan class="cls-3" x="40.5" y="0">N</tspan><tspan x="83.7" y="0">ib</tspan><tspan class="cls-8" x="138.66" y="0">bl</tspan><tspan x="192.24" y="0">es &amp; </tspan><tspan class="cls-11" x="332.94" y="0">B</tspan><tspan x="374.16" y="0">i</tspan><tspan class="cls-12" x="393.54" y="0">t</tspan><tspan x="414.3" y="0">es~</tspan></text>
    <text class="cls-5" transform="translate(124.76 596.86) rotate(-12.98)"><tspan x="0" y="0">P</tspan></text>
    <text class="cls-5" transform="translate(203.78 578.86) rotate(-8)"><tspan x="0" y="0">a</tspan></text>
    <text class="cls-5" transform="translate(265.77 569.12) rotate(-2.31)"><tspan x="0" y="0">w</tspan></text>
    <text class="cls-5" transform="translate(361.39 566.25) rotate(2.62)"><tspan x="0" y="0">f</tspan></text>
    <text class="cls-5" transform="translate(403.31 567.8) rotate(6.19)"><tspan x="0" y="0">e</tspan></text>
    <text class="cls-5" transform="translate(464.29 574.37) rotate(10.37)"><tspan x="0" y="0">c</tspan></text>
    <text class="cls-5" transform="translate(524.85 585.71) rotate(13.74)"><tspan x="0" y="0">t</tspan></text>
  </g>
</svg>