<?xml version="1.0" encoding="UTF-8"?>
<svg id="Layer_1" data-name="Layer 1" xmlns="http://www.w3.org/2000/svg" viewBox="0 0 300 300">
  <defs>
    <style>
      .cls-1 {
        fill: #99806b;
      }

      .cls-2 {
        fill: #ab8f78;
      }

      .cls-3 {
        fill: #bca593;
      }
    </style>
  </defs>
  <g id="Bites">
    <g id="Bite">
      <path class="cls-2" d="M191.06,242.89c5.41-12.63-.45-27.25-13.08-32.66-11.35-4.86-24.31-.62-30.74,9.46l-47.47-20.32c2.85-11.61-3.03-23.91-14.38-28.77-12.63-5.41-27.25.45-32.66,13.08-2.62,6.13-2.59,12.73-.42,18.52-5.69,2.43-10.48,6.95-13.11,13.09-5.41,12.63.45,27.25,13.08,32.66,11.35,4.86,24.31.62,30.74-9.46l47.47,20.32c-2.85,11.61,3.03,23.91,14.38,28.77,12.63,5.41,27.25-.45,32.66-13.08,2.62-6.13,2.59-12.73.42-18.52,5.69-2.43,10.48-6.95,13.11-13.09Z"/>
      <path id="Far_Left" data-name="Far Left" class="cls-3" d="M82.13,176.54c-3.38-7.04-16.31-1.5-20.22,3-1.3,1.72-3.69,3.76-3.17,6.08.44,1.17,2.01,1.69,3.03.95,4.81-1.71,8.99-5.94,14.44-6.77,2.04-.79,6.13-.07,5.92-3.25Z"/>
      <path id="Far_Left-2" data-name="Far Left" class="cls-1" d="M149.46,283.85c1.35,5.8,11.9,3.83,15.55,1.13,1.25-1.06,3.37-2.18,3.37-4-.13-.94-1.21-1.59-2.1-1.21-3.86.47-7.68,2.93-11.88,2.64-1.65.25-4.58-.97-4.95,1.44Z"/>
    </g>
    <g id="Bite-2" data-name="Bite">
      <path class="cls-2" d="M151.42,26.07c-6.98-11.84-22.23-15.78-34.06-8.8-10.64,6.27-14.89,19.22-10.58,30.37l-44.49,26.22c-7.67-9.17-21.06-11.72-31.7-5.45-11.84,6.98-15.78,22.23-8.8,34.06,3.39,5.75,8.73,9.62,14.67,11.3-1.41,6.02-.6,12.57,2.78,18.31,6.98,11.84,22.23,15.78,34.06,8.8,10.64-6.27,14.89-19.22,10.58-30.37l44.49-26.22c7.67,9.17,21.06,11.72,31.7,5.45,11.84-6.98,15.78-22.23,8.8-34.06-3.39-5.75-8.73-9.62-14.67-11.3,1.41-6.02.6-12.57-2.78-18.31Z"/>
      <path id="Far_Left-3" data-name="Far Left" class="cls-3" d="M33.45,74.57c-7.67-1.44-10.87,12.26-9.56,18.07.61,2.06.84,5.2,3.02,6.16,1.2.34,2.55-.62,2.56-1.88,1.47-4.88.54-10.76,3.09-15.64.57-2.11,3.57-4.98.88-6.7Z"/>
      <path id="Far_Left-4" data-name="Far Left" class="cls-1" d="M159.8,83.85c5.47,2.35,10.13-7.32,10.12-11.86-.11-1.64.24-4.01-1.23-5.09-.84-.45-2,.03-2.22.98-1.91,3.39-2.19,7.92-4.9,11.13-.78,1.48-3.49,3.11-1.77,4.84Z"/>
    </g>
    <g id="Brown_Pawprint" data-name="Brown Pawprint">
      <path id="Pad" class="cls-2" d="M187.77,161.01c3.33-2.78,7.72-3.86,10.98-6.67,3.18-2.75,4.94-6.8,7.75-9.89,11.92-13.06,33.12-12.25,44,1.64,3.27,4.17,5.9,8.47,10.21,11.69,3.75,2.8,7.68,5.39,10.09,9.53,4.97,8.43,2.59,20.68-5.86,26.8-8.3,7.6-21.09,7.14-30.13.85-9.83-7.08-15.1,1.07-24.37,3.59-21.93,6.17-40.7-21.4-22.69-37.55Z"/>
      <g id="Toes">
        <ellipse id="Far_Right_Toe" data-name="Far Right Toe" class="cls-2" cx="178.4" cy="136.69" rx="13.52" ry="15.93" transform="translate(-35.78 68.58) rotate(-19.82)"/>
        <ellipse id="Center_Right_Toe" data-name="Center Right Toe" class="cls-2" cx="206.75" cy="109.65" rx="17.24" ry="20.73" transform="translate(-15.77 37.17) rotate(-9.9)"/>
        <ellipse id="Center_Left_Toe" data-name="Center Left Toe" class="cls-2" cx="248.77" cy="109.65" rx="20.73" ry="17.24" transform="translate(113.09 345.23) rotate(-83.85)"/>
        <ellipse id="Far_Left_Toe" data-name="Far Left Toe" class="cls-2" cx="276.32" cy="136.69" rx="15.93" ry="13.52" transform="translate(74.06 369.34) rotate(-75.32)"/>
      </g>
      <g id="Highlights">
        <path id="Pad-2" data-name="Pad" class="cls-3" d="M214.93,154.51c-3.74-8.17-11.63,1.4-15.82,4.35-3.19,2.9-6.97,4.94-10.04,7.96-3.77,3.55-5.72,10.12-2.48,14.65,1.51,2.12,4.36,3.13,6.6,1.44,2.2-1.66,2.46-4.84,3.85-7.06,4.13-7.88,18.27-11.65,17.9-21.34Z"/>
        <path id="Far_Right" data-name="Far Right" class="cls-3" d="M276.81,122.75c-2.55-.24-5.34,1.63-7.04,3.46-.46.88.75,1.2,1.23.53,1.42-1.14,3.07-2.02,4.84-2.49.77-.05,1.83-.77.97-1.5Z"/>
        <path id="Center_Right" data-name="Center Right" class="cls-3" d="M248.72,91.56c-2.17-3.19-9.36,3.45-10.23,6.01-.51.84.15,2,1.13,1.98,1.42-.27,2.14-1.96,3.38-2.68,1.24-1.51,5.64-2.16,5.39-4.09.32-.29.45-.81.33-1.22Z"/>
        <path id="Center_Left" data-name="Center Left" class="cls-3" d="M172.14,125.61c-1.59-3.03-6.32,4.58-5.2,6.33,1.17.65,1.27-1.65,1.88-2.28.58-1.75,2.93-2.4,3.32-4.06Z"/>
        <path id="Far_Left-5" data-name="Far Left" class="cls-3" d="M204.03,92.61c-3.61-3.15-9.57,3.09-10.69,6.58-.32,1.28-1.18,3.01-.32,4.2.53.55,1.54.47,1.94-.2,2.3-2.12,3.64-5.52,6.51-7.31.96-.94,3.44-1.52,2.56-3.27Z"/>
      </g>
    </g>
  </g>
</svg>