<?xml version="1.0" encoding="UTF-8"?>
<svg id="Layer_1" data-name="Layer 1" xmlns="http://www.w3.org/2000/svg" viewBox="0 0 300 300">
  <defs>
    <style>
      .cls-1 {
        fill: #99806b;
      }

      .cls-2 {
        fill: #ab8f78;
      }

      .cls-3 {
        fill: #bca593;
      }
    </style>
  </defs>
  <g id="Chews">
    <g id="Chew">
      <path class="cls-2" d="M271.32,184.97c16.06-8.01,22.59-27.53,14.58-43.6-7.2-14.44-23.69-21.16-38.62-16.57l-30.12-60.38c12.65-9.16,17.2-26.38,10-40.82-8.01-16.06-27.53-22.59-43.6-14.58-7.8,3.89-13.34,10.49-16.07,18.09-7.71-2.39-16.32-1.94-24.12,1.95-16.06,8.01-22.59,27.53-14.58,43.6,7.2,14.44,23.69,21.16,38.62,16.56l30.12,60.38c-12.65,9.16-17.2,26.38-10,40.82,8.01,16.06,27.53,22.59,43.6,14.58,7.8-3.89,13.34-10.49,16.07-18.09,7.71,2.39,16.32,1.94,24.12-1.95Z"/>
      <path id="Far_Left" data-name="Far Left" class="cls-3" d="M218.88,26.78c2.58-9.87-14.98-15.29-22.68-14.11-2.75.61-6.85.62-8.3,3.38-.55,1.54.57,3.38,2.22,3.51,6.23,2.36,13.98,1.69,20.11,5.46,2.7.94,6.17,5.11,8.65,1.76Z"/>
      <path id="Far_Left-2" data-name="Far Left" class="cls-1" d="M195.26,190.61c-3.56,6.92,8.61,13.87,14.54,14.28,2.15,0,5.2.68,6.74-1.13.66-1.05.14-2.61-1.07-2.98-4.25-2.8-10.13-3.58-14.06-7.41-1.86-1.15-3.74-4.83-6.15-2.75Z"/>
    </g>
    <g id="Brown_Pawprint" data-name="Brown Pawprint">
      <path id="Pad" class="cls-2" d="M42.91,220.65c4.17-3.49,9.69-4.84,13.78-8.37,3.99-3.44,6.19-8.53,9.73-12.4,14.95-16.38,41.54-15.36,55.18,2.06,4.1,5.23,7.4,10.63,12.81,14.67,4.71,3.51,9.63,6.76,12.66,11.95,6.23,10.58,3.25,25.93-7.35,33.62-10.42,9.53-26.46,8.95-37.79,1.07-12.32-8.89-18.94,1.34-30.56,4.51-27.5,7.73-51.05-26.84-28.45-47.1Z"/>
      <g id="Toes">
        <ellipse id="Far_Right_Toe" data-name="Far Right Toe" class="cls-2" cx="31.16" cy="190.14" rx="16.96" ry="19.98" transform="translate(-62.62 21.83) rotate(-19.82)"/>
        <ellipse id="Center_Right_Toe" data-name="Center Right Toe" class="cls-2" cx="66.72" cy="156.22" rx="21.63" ry="26.01" transform="translate(-25.86 13.79) rotate(-9.9)"/>
        <ellipse id="Center_Left_Toe" data-name="Center Left Toe" class="cls-2" cx="119.42" cy="156.22" rx="26.01" ry="21.63" transform="translate(-48.7 258.22) rotate(-83.85)"/>
        <ellipse id="Far_Left_Toe" data-name="Far Left Toe" class="cls-2" cx="153.98" cy="190.14" rx="19.98" ry="16.96" transform="translate(-68.97 290.91) rotate(-75.32)"/>
      </g>
      <g id="Highlights">
        <path id="Pad-2" data-name="Pad" class="cls-3" d="M76.98,212.49c-4.69-10.25-14.59,1.75-19.85,5.46-4,3.64-8.75,6.2-12.6,9.99-4.72,4.45-7.17,12.69-3.12,18.37,1.9,2.66,5.46,3.93,8.27,1.8,2.76-2.09,3.08-6.07,4.83-8.85,5.18-9.88,22.91-14.61,22.46-26.77Z"/>
        <path id="Far_Right" data-name="Far Right" class="cls-3" d="M154.6,172.65c-3.2-.3-6.7,2.04-8.83,4.34-.58,1.11.94,1.5,1.54.67,1.78-1.43,3.85-2.54,6.07-3.12.97-.06,2.29-.97,1.22-1.88Z"/>
        <path id="Center_Right" data-name="Center Right" class="cls-3" d="M119.37,133.53c-2.72-4-11.74,4.32-12.84,7.54-.64,1.05.18,2.51,1.42,2.48,1.79-.34,2.68-2.46,4.25-3.36,1.56-1.89,7.08-2.71,6.76-5.13.4-.36.57-1.01.41-1.53Z"/>
        <path id="Center_Left" data-name="Center Left" class="cls-3" d="M23.32,176.25c-2-3.8-7.93,5.75-6.52,7.94,1.47.81,1.59-2.07,2.36-2.86.73-2.19,3.67-3.01,4.16-5.09Z"/>
        <path id="Far_Left-3" data-name="Far Left" class="cls-3" d="M63.31,134.85c-4.52-3.95-12,3.88-13.4,8.25-.4,1.61-1.47,3.78-.4,5.26.67.69,1.93.59,2.43-.25,2.89-2.66,4.57-6.93,8.17-9.17,1.2-1.18,4.32-1.91,3.21-4.1Z"/>
      </g>
    </g>
  </g>
</svg>