<?xml version="1.0" encoding="UTF-8"?>
<svg id="Layer_1" data-name="Layer 1" xmlns="http://www.w3.org/2000/svg" viewBox="0 0 300 300">
  <defs>
    <style>
      .cls-1 {
        fill: #99806b;
      }

      .cls-2 {
        fill: #ab8f78;
      }

      .cls-3 {
        fill: #bca593;
      }
    </style>
  </defs>
  <g id="Chomps">
    <g id="Chew">
      <path class="cls-2" d="M288.67,205.7c15.49-21.06,10.97-50.68-10.09-66.16-18.92-13.92-44.76-11.67-61.04,4.21l-79.14-58.21c10.31-20.27,4.75-45.6-14.17-59.52-21.06-15.49-50.68-10.97-66.17,10.09-7.52,10.22-10.31,22.46-8.79,34.12-11.58,2.03-22.43,8.34-29.95,18.56-15.49,21.06-10.97,50.68,10.09,66.17,18.92,13.92,44.76,11.67,61.04-4.21l79.14,58.21c-10.31,20.27-4.75,45.6,14.17,59.52,21.06,15.49,50.68,10.97,66.16-10.09,7.52-10.22,10.31-22.46,8.8-34.12,11.58-2.03,22.43-8.34,29.95-18.56Z"/>
      <path id="Far_Left" data-name="Far Left" class="cls-3" d="M115.61,35.62c-3.22-14.5-29.57-9.85-38.76-3.2-3.15,2.61-8.46,5.36-8.51,9.89.31,2.35,2.98,4,5.21,3.07,9.64-1.08,19.23-7.11,29.68-6.29,4.13-.59,11.39,2.53,12.38-3.46Z"/>
      <path id="Far_Left-2" data-name="Far Left" class="cls-1" d="M193.88,263.56c-.02,11.33,20.38,12.25,28.32,8.83,2.78-1.42,7.19-2.58,7.98-5.95.16-1.8-1.56-3.47-3.37-3.15-7.36-.8-15.5,2.09-23.14-.25-3.17-.25-8.06-3.77-9.79.52Z"/>
    </g>
  </g>
</svg>