<?xml version="1.0" encoding="UTF-8"?>
<svg id="Layer_1" data-name="Layer 1" xmlns="http://www.w3.org/2000/svg" viewBox="0 0 300 300">
  <defs>
    <style>
      .cls-1 {
        fill: #947c68;
      }

      .cls-2 {
        fill: #ab8f78;
      }

      .cls-3 {
        fill: #bca593;
      }
    </style>
  </defs>
  <g id="Nibbles">
    <g id="Nibble">
      <path class="cls-2" d="M42.25,123.82c-28.74-55.05,31.44-94.46,70.13-37.7,2.48,3.25-67.24,42.74-70.13,37.7Z"/>
      <path id="Far_Left" data-name="Far Left" class="cls-3" d="M53.34,66.74c-3.43-2.4-8.21,3.42-8.93,6.48-.18,1.12-.8,2.67.04,3.61.51.43,1.4.28,1.7-.33,1.87-2,2.78-5.02,5.18-6.77.78-.88,2.92-1.58,2-3Z"/>
      <path id="Far_Right" data-name="Far Right" class="cls-1" d="M107.22,85.73c-1.04-4.99-6.23-9.23-10.71-11.39-1.95-.36-1.84,2.12-.29,2.65,3,2.04,5.65,4.66,7.57,7.76.55,1.44,2.54,3.03,3.43.97Z"/>
    </g>
    <g id="Nibble-2" data-name="Nibble">
      <path class="cls-2" d="M150.01,226.39c-28.07,55.39-95.13,29.35-71.45-35.14,1.2-3.9,73.87,29.86,71.45,35.14Z"/>
      <path id="Far_Left-2" data-name="Far Left" class="cls-3" d="M97.14,250.57c.04,4.19,7.56,4.69,10.47,3.49,1.02-.5,2.64-.9,2.91-2.14.05-.67-.59-1.3-1.25-1.19-2.71-.35-5.7.65-8.52-.28-1.17-.12-2.98-1.46-3.6.11Z"/>
      <path id="Far_Right-2" data-name="Far Right" class="cls-1" d="M81.25,195.68c-3.46,3.75-3.88,10.43-3.04,15.33.84,1.8,2.8.26,2.33-1.3-.09-3.63.51-7.31,1.91-10.67.85-1.28.99-3.83-1.2-3.36Z"/>
    </g>
    <g id="Nibble-3" data-name="Nibble">
      <path class="cls-2" d="M170.03,169.4c37.9-49.2,98.93-11.12,63.66,47.83-1.91,3.61-67.02-43.09-63.66-47.83Z"/>
      <path id="Far_Left-3" data-name="Far Left" class="cls-3" d="M226.49,155.5c.74-4.13-6.55-6.02-9.63-5.38-1.09.31-2.76.39-3.26,1.56-.17.64.34,1.38,1.01,1.4,2.6.85,5.72.42,8.32,1.86,1.13.33,2.66,1.99,3.56.56Z"/>
      <path id="Far_Right-3" data-name="Far Right" class="cls-1" d="M231.87,212.38c4.1-3.04,5.76-9.53,5.84-14.5-.49-1.92-2.7-.78-2.53.85-.59,3.58-1.86,7.09-3.86,10.13-1.08,1.1-1.69,3.58.56,3.52Z"/>
    </g>
    <g id="Nibble-4" data-name="Nibble">
      <path class="cls-2" d="M113.98,186.52c-43.79-44.03,1.98-99.54,55.78-56.82,3.33,2.36-51.52,60.77-55.78,56.82Z"/>
      <path id="Far_Left-4" data-name="Far Left" class="cls-3" d="M107.62,128.73c-3.99-1.28-6.83,5.7-6.6,8.84.16,1.13.03,2.79,1.12,3.44.62.26,1.42-.15,1.52-.82,1.19-2.46,1.17-5.62,2.94-8.01.48-1.07,2.32-2.37,1.02-3.46Z"/>
      <path id="Far_Right-4" data-name="Far Right" class="cls-1" d="M164.71,130.87c-2.48-4.46-8.69-6.96-13.61-7.69-1.97.23-1.13,2.58.51,2.62,3.47,1.06,6.78,2.78,9.53,5.16.95,1.21,3.33,2.14,3.56-.09Z"/>
    </g>
    <g id="Nibble-5" data-name="Nibble">
      <path class="cls-2" d="M165.08,109.46c-20.35-58.67,44.97-88.82,74.91-26.99,1.97,3.57-72.79,32.4-74.91,26.99Z"/>
      <path id="Far_Left-5" data-name="Far Left" class="cls-3" d="M184.42,54.63c-3.04-2.88-8.63,2.17-9.78,5.1-.34,1.08-1.19,2.52-.49,3.58.44.5,1.34.48,1.73-.07,2.14-1.71,3.49-4.55,6.12-5.94.9-.76,3.12-1.13,2.42-2.67Z"/>
      <path id="Far_Right-5" data-name="Far Right" class="cls-1" d="M234.93,81.33c-.3-5.09-4.81-10.04-8.92-12.83-1.88-.65-2.13,1.83-.68,2.58,2.67,2.46,4.91,5.44,6.35,8.79.33,1.5,2.07,3.37,3.25,1.47Z"/>
    </g>
  </g>
</svg>